<svg width="32" height="32" viewBox="0 0 32 32" fill="none" xmlns="http://www.w3.org/2000/svg">
<g clipPath="url(#clip0_1387_18749)">
<mask id="mask0_1387_18749" style="mask-type:alpha" maskUnits="userSpaceOnUse" x="2" y="8" width="27" height="14">
<g style="mix-blend-mode:color-dodge" opacity="0.75">
<path d="M4.39005 9.87164C5.34217 9.0969 6.43873 8.50722 7.67946 8.36173C8.85864 8.22544 9.99092 8.33434 11.1165 8.75816C12.6376 9.32871 14.0227 10.3419 15.2593 11.3568C15.8484 11.8403 18.0027 13.7883 18.0027 13.7883C19.2847 13.2202 20.9137 12.5131 22.3052 12.0836C23.0471 11.8554 23.9648 11.6685 24.7428 11.796C26.5215 12.0853 27.7321 13.0796 28.2674 14.8103C28.4528 15.4098 28.4865 15.8076 28.4217 16.4385C28.1139 18.1445 27.1762 19.3372 25.4838 19.9061C24.9495 20.0871 24.5003 20.1564 23.9528 20.1543C23.2216 20.1515 22.5499 19.8333 21.8825 19.5741C20.5428 19.0522 19.1575 18.1417 17.9715 17.3505L17.0165 17.8909C15.6849 18.6833 14.2839 19.3735 12.8667 20.0049C11.6171 20.5647 10.3208 20.9602 8.94039 21.0317C8.0923 21.0742 7.22178 21.0214 6.41878 20.7306C5.2374 20.3155 4.21039 19.56 3.47082 18.562C2.96665 17.8857 2.59036 17.1519 2.41137 16.3249C1.80304 14.0827 2.54039 11.3767 4.39005 9.87164ZM14.7423 15.1496C12.6859 13.7371 10.6777 12.1051 8.30665 12.3384C6.90679 12.4762 6.12389 13.6984 6.21595 14.9947C6.27311 15.7998 6.97097 16.7735 7.87212 17.0656C8.59317 17.2992 9.29298 17.1627 9.97111 16.9652C11.6289 16.4827 13.1478 15.7903 14.7423 15.1496ZM20.4767 15.9321C21.2113 16.4879 22.1002 17.0627 22.987 17.3466C23.5131 17.515 24.0516 17.6022 24.6142 17.4803C25.6258 17.2614 26.1964 15.9118 25.4852 14.9475C24.9678 14.3207 24.2484 14.2833 23.5519 14.4521C22.4375 14.7252 20.8755 15.6807 20.4767 15.9321Z" fill="url(#paint0_linear_1387_18749)"/>
<path d="M12.866 20.0053C14.2833 19.3739 15.6842 18.6837 17.0159 17.8913L17.9709 17.3509L14.7428 15.151C13.1484 15.7917 11.6282 16.4831 9.97045 16.9657C9.29232 17.1631 8.59251 17.2996 7.87146 17.066C6.97031 16.7739 6.27245 15.8002 6.21529 14.9952C6.12324 13.6988 6.90613 12.4766 8.30599 12.3388C8.30599 12.3388 3.78019 12.6306 4.48518 17.7958C5.24979 21.4132 8.93973 21.0321 8.93973 21.0321C10.3201 20.9606 11.6165 20.5651 12.866 20.0053Z" fill="url(#paint1_linear_1387_18749)"/>
<path d="M22.3055 12.0828C20.9139 12.5124 19.285 13.2195 18.0029 13.7876C18.0029 13.7876 20.1668 15.7151 20.477 15.9314C20.6982 15.7852 22.4378 14.7244 23.5522 14.4514C24.2486 14.2826 24.9681 14.32 25.4855 14.9468C26.1967 15.9111 25.6261 17.2607 24.6145 17.4796C24.6145 17.4796 27.2068 17.0738 27.03 14.3323C26.9577 13.2102 25.9995 12.0012 24.7431 11.7953C23.9651 11.6677 23.0474 11.8547 22.3055 12.0828Z" fill="url(#paint2_linear_1387_18749)"/>
</g>
<g style="mix-blend-mode:screen" opacity="0.25">
<path d="M4.39005 9.87164C5.34217 9.0969 6.43873 8.50722 7.67946 8.36173C8.85864 8.22544 9.99092 8.33434 11.1165 8.75816C12.6376 9.32871 14.0227 10.3419 15.2593 11.3568C15.8484 11.8403 18.0027 13.7883 18.0027 13.7883C19.2847 13.2202 20.9137 12.5131 22.3052 12.0836C23.0471 11.8554 23.9648 11.6685 24.7428 11.796C26.5215 12.0853 27.7321 13.0796 28.2674 14.8103C28.4528 15.4098 28.4865 15.8076 28.4217 16.4385C28.1139 18.1445 27.1762 19.3372 25.4838 19.9061C24.9495 20.0871 24.5003 20.1564 23.9528 20.1543C23.2216 20.1515 22.5499 19.8333 21.8825 19.5741C20.5428 19.0522 19.1575 18.1417 17.9715 17.3505L17.0165 17.8909C15.6849 18.6833 14.2839 19.3735 12.8667 20.0049C11.6171 20.5647 10.3208 20.9602 8.94039 21.0317C8.0923 21.0742 7.22178 21.0214 6.41878 20.7306C5.2374 20.3155 4.21039 19.56 3.47082 18.562C2.96665 17.8857 2.59036 17.1519 2.41137 16.3249C1.80304 14.0827 2.54039 11.3767 4.39005 9.87164ZM14.7423 15.1496C12.6859 13.7371 10.6777 12.1051 8.30665 12.3384C6.90679 12.4762 6.12389 13.6984 6.21595 14.9947C6.27311 15.7998 6.97097 16.7735 7.87212 17.0656C8.59317 17.2992 9.29298 17.1627 9.97111 16.9652C11.6289 16.4827 13.1478 15.7903 14.7423 15.1496ZM20.4767 15.9321C21.2113 16.4879 22.1002 17.0627 22.987 17.3466C23.5131 17.515 24.0516 17.6022 24.6142 17.4803C25.6258 17.2614 26.1964 15.9118 25.4852 14.9475C24.9678 14.3207 24.2484 14.2833 23.5519 14.4521C22.4375 14.7252 20.8755 15.6807 20.4767 15.9321Z" fill="url(#paint3_linear_1387_18749)"/>
<path d="M12.866 20.0053C14.2833 19.3739 15.6842 18.6837 17.0159 17.8913L17.9709 17.3509L14.7428 15.151C13.1484 15.7917 11.6282 16.4831 9.97045 16.9657C9.29232 17.1631 8.59251 17.2996 7.87146 17.066C6.97031 16.7739 6.27245 15.8002 6.21529 14.9952C6.12324 13.6988 6.90613 12.4766 8.30599 12.3388C8.30599 12.3388 3.78019 12.6306 4.48518 17.7958C5.24979 21.4132 8.93973 21.0321 8.93973 21.0321C10.3201 20.9606 11.6165 20.5651 12.866 20.0053Z" fill="url(#paint4_linear_1387_18749)"/>
<path d="M22.3055 12.0828C20.9139 12.5124 19.285 13.2195 18.0029 13.7876C18.0029 13.7876 20.1668 15.7151 20.477 15.9314C20.6982 15.7852 22.4378 14.7244 23.5522 14.4514C24.2486 14.2826 24.9681 14.32 25.4855 14.9468C26.1967 15.9111 25.6261 17.2607 24.6145 17.4796C24.6145 17.4796 27.2068 17.0738 27.03 14.3323C26.9577 13.2102 25.9995 12.0012 24.7431 11.7953C23.9651 11.6677 23.0474 11.8547 22.3055 12.0828Z" fill="url(#paint5_linear_1387_18749)"/>
</g>
</mask>
<g mask="url(#mask0_1387_18749)">
<g filter="url(#filter0_bf_1387_18749)">
<ellipse cx="21.2862" cy="18.9483" rx="9.04884" ry="3.62591" transform="rotate(90 21.2862 18.9483)" fill="white"/>
<ellipse cx="21.2862" cy="18.9483" rx="9.04884" ry="3.62591" transform="rotate(90 21.2862 18.9483)" fill="black"/>
</g>
<g filter="url(#filter1_f_1387_18749)">
<path d="M17.2373 21.212C17.9012 24.3811 15.8372 27.2934 12.6271 27.7169C9.41696 28.1403 6.27643 25.9144 5.6125 22.7453L3.8363 14.2672C3.17236 11.0981 5.23643 8.18579 8.44653 7.76238C11.6566 7.33896 14.7972 9.56479 15.4611 12.7339L17.2373 21.212Z" fill="url(#paint6_radial_1387_18749)"/>
</g>
<g filter="url(#filter2_f_1387_18749)">
<path d="M17.2373 21.212C17.9012 24.3811 15.8372 27.2934 12.6271 27.7169C9.41696 28.1403 6.27643 25.9144 5.6125 22.7453L3.8363 14.2672C3.17236 11.0981 5.23643 8.18579 8.44653 7.76238C11.6566 7.33896 14.7972 9.56479 15.4611 12.7339L17.2373 21.212Z" fill="url(#paint7_radial_1387_18749)"/>
</g>
<g filter="url(#filter3_bf_1387_18749)">
<ellipse cx="17.3393" cy="18.5106" rx="11.0135" ry="3.27793" transform="rotate(90 17.3393 18.5106)" fill="#350C0C"/>
</g>
<g filter="url(#filter4_f_1387_18749)">
<path d="M16.8164 11.5318C17.003 9.87301 17.7453 9.74564 18.4742 11.2473C19.2032 12.7489 19.6429 15.3109 19.4562 16.9697L19.0919 20.2081C18.9052 21.8669 18.163 21.9942 17.434 20.4926C16.705 18.991 16.2654 16.4289 16.452 14.7702L16.8164 11.5318Z" fill="black"/>
</g>
<g filter="url(#filter5_f_1387_18749)">
<path d="M15.0934 16.0601C15.3525 13.7574 16.3829 13.5806 17.3949 15.6652C18.4069 17.7498 19.0172 21.3065 18.7581 23.6092L18.4225 26.592C18.1634 28.8948 17.133 29.0716 16.121 26.987C15.109 24.9023 14.4987 21.3457 14.7578 19.0429L15.0934 16.0601Z" fill="black"/>
</g>
<g filter="url(#filter6_f_1387_18749)">
<path d="M16.8164 13.9234C17.003 12.2646 17.7453 12.1372 18.4742 13.6389C19.2032 15.1405 19.6429 17.7025 19.4562 19.3613L19.0919 22.5997C18.9052 24.2585 18.163 24.3858 17.434 22.8842C16.705 21.3826 16.2654 18.8205 16.452 17.1618L16.8164 13.9234Z" fill="black"/>
</g>
<g filter="url(#filter7_f_1387_18749)">
<path d="M21.7919 20.2463C21.8054 18.4815 23.2257 16.8043 24.9642 16.5003C26.7027 16.1962 28.1011 17.3804 28.0876 19.1452L28.0597 22.7781C28.0462 24.5429 26.6259 26.22 24.8874 26.5241C23.1489 26.8281 21.7505 25.6439 21.764 23.8791L21.7919 20.2463Z" fill="url(#paint8_radial_1387_18749)"/>
</g>
<g style="mix-blend-mode:overlay" filter="url(#filter8_f_1387_18749)">
<path d="M22.5327 1.14727C25.4444 0.53738 28.3514 2.39173 29.0259 5.28907L31.2546 14.8635C31.9291 17.7609 30.1155 20.6041 27.2039 21.2139C24.2923 21.8238 21.3852 19.9695 20.7107 17.0721L18.482 7.49767C17.8076 4.60033 19.6211 1.75716 22.5327 1.14727Z" fill="url(#paint9_radial_1387_18749)"/>
</g>
<g style="mix-blend-mode:overlay" opacity="0.75" filter="url(#filter9_d_1387_18749)">
<path d="M4.39005 9.87164C5.34217 9.0969 6.43873 8.50722 7.67946 8.36173C8.85864 8.22544 9.99092 8.33434 11.1165 8.75816C12.6376 9.32871 14.0227 10.3419 15.2593 11.3568C15.8484 11.8403 18.0027 13.7883 18.0027 13.7883C19.2847 13.2202 20.9137 12.5131 22.3052 12.0836C23.0471 11.8554 23.9648 11.6685 24.7428 11.796C26.5215 12.0853 27.7321 13.0796 28.2674 14.8103C28.4528 15.4098 28.4865 15.8076 28.4217 16.4385C28.1139 18.1445 27.1762 19.3372 25.4838 19.9061C24.9495 20.0871 24.5003 20.1564 23.9528 20.1543C23.2216 20.1515 22.5499 19.8333 21.8825 19.5741C20.5428 19.0522 19.1575 18.1417 17.9715 17.3505L17.0165 17.8909C15.6849 18.6833 14.2839 19.3735 12.8667 20.0049C11.6171 20.5647 10.3208 20.9602 8.94039 21.0317C8.0923 21.0742 7.22178 21.0214 6.41878 20.7306C5.2374 20.3155 4.21039 19.56 3.47082 18.562C2.96665 17.8857 2.59036 17.1519 2.41137 16.3249C1.80304 14.0827 2.54039 11.3767 4.39005 9.87164ZM14.7423 15.1496C12.6859 13.7371 10.6777 12.1051 8.30665 12.3384C6.90679 12.4762 6.12389 13.6984 6.21595 14.9947C6.27311 15.7998 6.97097 16.7735 7.87212 17.0656C8.59317 17.2992 9.29298 17.1627 9.97111 16.9652C11.6289 16.4827 13.1478 15.7903 14.7423 15.1496ZM20.4767 15.9321C21.2113 16.4879 22.1002 17.0627 22.987 17.3466C23.5131 17.515 24.0516 17.6022 24.6142 17.4803C25.6258 17.2614 26.1964 15.9118 25.4852 14.9475C24.9678 14.3207 24.2484 14.2833 23.5519 14.4521C22.4375 14.7252 20.8755 15.6807 20.4767 15.9321Z" fill="url(#paint10_linear_1387_18749)"/>
<path d="M12.866 20.0053C14.2833 19.3739 15.6842 18.6837 17.0159 17.8913L17.9709 17.3509L14.7428 15.151C13.1484 15.7917 11.6282 16.4831 9.97045 16.9657C9.29232 17.1631 8.59251 17.2996 7.87146 17.066C6.97031 16.7739 6.27245 15.8002 6.21529 14.9952C6.12324 13.6988 6.90613 12.4766 8.30599 12.3388C8.30599 12.3388 3.78019 12.6306 4.48518 17.7958C5.24979 21.4132 8.93973 21.0321 8.93973 21.0321C10.3201 20.9606 11.6165 20.5651 12.866 20.0053Z" fill="url(#paint11_linear_1387_18749)"/>
<path d="M22.3055 12.0828C20.9139 12.5124 19.285 13.2195 18.0029 13.7876C18.0029 13.7876 20.1668 15.7151 20.477 15.9314C20.6982 15.7852 22.4378 14.7244 23.5522 14.4514C24.2486 14.2826 24.9681 14.32 25.4855 14.9468C26.1967 15.9111 25.6261 17.2607 24.6145 17.4796C24.6145 17.4796 27.2068 17.0738 27.03 14.3323C26.9577 13.2102 25.9995 12.0012 24.7431 11.7953C23.9651 11.6677 23.0474 11.8547 22.3055 12.0828Z" fill="url(#paint12_linear_1387_18749)"/>
</g>
</g>
</g>
<rect x="0.5" y="0.5" width="31" height="31" rx="5.5" stroke="white"/>
<defs>
<filter id="filter0_bf_1387_18749" x="8.66016" y="0.899414" width="25.252" height="36.0977" filterUnits="userSpaceOnUse" color-interpolation-filters="sRGB">
<feFlood flood-opacity="0" result="BackgroundImageFix"/>
<feGaussianBlur in="BackgroundImageFix" stdDeviation="0.45"/>
<feComposite in2="SourceAlpha" operator="in" result="effect1_backgroundBlur_1387_18749"/>
<feBlend mode="normal" in="SourceGraphic" in2="effect1_backgroundBlur_1387_18749" result="shape"/>
<feGaussianBlur stdDeviation="4.5" result="effect2_foregroundBlur_1387_18749"/>
</filter>
<filter id="filter1_f_1387_18749" x="0.463238" y="4.46226" width="20.1468" height="26.555" filterUnits="userSpaceOnUse" color-interpolation-filters="sRGB">
<feFlood flood-opacity="0" result="BackgroundImageFix"/>
<feBlend mode="normal" in="SourceGraphic" in2="BackgroundImageFix" result="shape"/>
<feGaussianBlur stdDeviation="1.62434" result="effect1_foregroundBlur_1387_18749"/>
</filter>
<filter id="filter2_f_1387_18749" x="0.463238" y="4.46226" width="20.1468" height="26.555" filterUnits="userSpaceOnUse" color-interpolation-filters="sRGB">
<feFlood flood-opacity="0" result="BackgroundImageFix"/>
<feBlend mode="normal" in="SourceGraphic" in2="BackgroundImageFix" result="shape"/>
<feGaussianBlur stdDeviation="1.62434" result="effect1_foregroundBlur_1387_18749"/>
</filter>
<filter id="filter3_bf_1387_18749" x="5.06152" y="-1.50293" width="24.5557" height="40.0273" filterUnits="userSpaceOnUse" color-interpolation-filters="sRGB">
<feFlood flood-opacity="0" result="BackgroundImageFix"/>
<feGaussianBlur in="BackgroundImageFix" stdDeviation="0.45"/>
<feComposite in2="SourceAlpha" operator="in" result="effect1_backgroundBlur_1387_18749"/>
<feBlend mode="normal" in="SourceGraphic" in2="effect1_backgroundBlur_1387_18749" result="shape"/>
<feGaussianBlur stdDeviation="4.5" result="effect2_foregroundBlur_1387_18749"/>
</filter>
<filter id="filter4_f_1387_18749" x="6.61351" y="0.40355" width="22.6812" height="30.9322" filterUnits="userSpaceOnUse" color-interpolation-filters="sRGB">
<feFlood flood-opacity="0" result="BackgroundImageFix"/>
<feBlend mode="normal" in="SourceGraphic" in2="BackgroundImageFix" result="shape"/>
<feGaussianBlur stdDeviation="4.89783" result="effect1_foregroundBlur_1387_18749"/>
</filter>
<filter id="filter5_f_1387_18749" x="4.90257" y="4.41429" width="23.7105" height="33.8228" filterUnits="userSpaceOnUse" color-interpolation-filters="sRGB">
<feFlood flood-opacity="0" result="BackgroundImageFix"/>
<feBlend mode="normal" in="SourceGraphic" in2="BackgroundImageFix" result="shape"/>
<feGaussianBlur stdDeviation="4.89783" result="effect1_foregroundBlur_1387_18749"/>
</filter>
<filter id="filter6_f_1387_18749" x="6.61351" y="2.79515" width="22.6812" height="30.9322" filterUnits="userSpaceOnUse" color-interpolation-filters="sRGB">
<feFlood flood-opacity="0" result="BackgroundImageFix"/>
<feBlend mode="normal" in="SourceGraphic" in2="BackgroundImageFix" result="shape"/>
<feGaussianBlur stdDeviation="4.89783" result="effect1_foregroundBlur_1387_18749"/>
</filter>
<filter id="filter7_f_1387_18749" x="11.968" y="6.65746" width="25.9156" height="29.7095" filterUnits="userSpaceOnUse" color-interpolation-filters="sRGB">
<feFlood flood-opacity="0" result="BackgroundImageFix"/>
<feBlend mode="normal" in="SourceGraphic" in2="BackgroundImageFix" result="shape"/>
<feGaussianBlur stdDeviation="4.89783" result="effect1_foregroundBlur_1387_18749"/>
</filter>
<filter id="filter8_f_1387_18749" x="15.1611" y="-2.14848" width="19.4141" height="26.6583" filterUnits="userSpaceOnUse" color-interpolation-filters="sRGB">
<feFlood flood-opacity="0" result="BackgroundImageFix"/>
<feBlend mode="normal" in="SourceGraphic" in2="BackgroundImageFix" result="shape"/>
<feGaussianBlur stdDeviation="1.58987" result="effect1_foregroundBlur_1387_18749"/>
</filter>
<filter id="filter9_d_1387_18749" x="1.48215" y="7.94664" width="27.69" height="14.1783" filterUnits="userSpaceOnUse" color-interpolation-filters="sRGB">
<feFlood flood-opacity="0" result="BackgroundImageFix"/>
<feColorMatrix in="SourceAlpha" type="matrix" values="0 0 0 0 0 0 0 0 0 0 0 0 0 0 0 0 0 0 127 0" result="hardAlpha"/>
<feOffset dy="0.36"/>
<feGaussianBlur stdDeviation="0.36"/>
<feComposite in2="hardAlpha" operator="out"/>
<feColorMatrix type="matrix" values="0 0 0 0 0.356863 0 0 0 0 0.54902 0 0 0 0 0.486275 0 0 0 0.5 0"/>
<feBlend mode="color-burn" in2="BackgroundImageFix" result="effect1_dropShadow_1387_18749"/>
<feBlend mode="normal" in="SourceGraphic" in2="effect1_dropShadow_1387_18749" result="shape"/>
</filter>
<linearGradient id="paint0_linear_1387_18749" x1="2.41338" y1="17.5311" x2="32.8021" y2="13.5566" gradientUnits="userSpaceOnUse">
<stop stop-color="white"/>
<stop offset="0.829729" stop-color="#C9C9C9"/>
<stop offset="1" stop-color="#373737"/>
</linearGradient>
<linearGradient id="paint1_linear_1387_18749" x1="0.906923" y1="14.71" x2="16.3088" y2="16.193" gradientUnits="userSpaceOnUse">
<stop stop-color="#F2F2F2"/>
<stop offset="0.463856" stop-color="#909090"/>
</linearGradient>
<linearGradient id="paint2_linear_1387_18749" x1="15.9326" y1="17.0676" x2="29.5444" y2="12.402" gradientUnits="userSpaceOnUse">
<stop offset="0.578095" stop-color="#8F8F8F"/>
<stop offset="1" stop-color="#F2F2F2"/>
</linearGradient>
<linearGradient id="paint3_linear_1387_18749" x1="2.41338" y1="17.5311" x2="32.8021" y2="13.5566" gradientUnits="userSpaceOnUse">
<stop stop-color="white"/>
<stop offset="0.829729" stop-color="#C9C9C9"/>
<stop offset="1" stop-color="#373737"/>
</linearGradient>
<linearGradient id="paint4_linear_1387_18749" x1="0.906923" y1="14.71" x2="16.3088" y2="16.193" gradientUnits="userSpaceOnUse">
<stop stop-color="#F2F2F2"/>
<stop offset="0.463856" stop-color="#909090"/>
</linearGradient>
<linearGradient id="paint5_linear_1387_18749" x1="15.9326" y1="17.0676" x2="29.5444" y2="12.402" gradientUnits="userSpaceOnUse">
<stop offset="0.578095" stop-color="#8F8F8F"/>
<stop offset="1" stop-color="#F2F2F2"/>
</linearGradient>
<radialGradient id="paint6_radial_1387_18749" cx="0" cy="0" r="1" gradientUnits="userSpaceOnUse" gradientTransform="translate(12.2154 20.7322) rotate(-106.203) scale(13.5063 7.74948)">
<stop offset="0.286458" stop-color="#FF4B4B"/>
<stop offset="1" stop-color="#FFD84B" stop-opacity="0.72"/>
</radialGradient>
<radialGradient id="paint7_radial_1387_18749" cx="0" cy="0" r="1" gradientUnits="userSpaceOnUse" gradientTransform="translate(12.2154 20.7322) rotate(-106.203) scale(13.5063 7.74948)">
<stop offset="0.286458" stop-color="#FF4B4B"/>
<stop offset="1" stop-color="#FFD84B" stop-opacity="0.72"/>
</radialGradient>
<radialGradient id="paint8_radial_1387_18749" cx="0" cy="0" r="1" gradientUnits="userSpaceOnUse" gradientTransform="translate(21.9419 20.3782) rotate(5.60539) scale(6.64278 2.78629)">
<stop stop-color="#5AFDDF"/>
<stop offset="1" stop-color="#00D9A5"/>
</radialGradient>
<radialGradient id="paint9_radial_1387_18749" cx="0" cy="0" r="1" gradientUnits="userSpaceOnUse" gradientTransform="translate(1.65034 12.7751) rotate(-50.5863) scale(37.5962 56.7355)">
<stop stop-color="#07FFC4"/>
<stop offset="1" stop-color="#007ABE"/>
</radialGradient>
<linearGradient id="paint10_linear_1387_18749" x1="2.41338" y1="17.5311" x2="32.8021" y2="13.5566" gradientUnits="userSpaceOnUse">
<stop stop-color="#3E3E3E"/>
<stop offset="0.829729" stop-color="#9D9D9D"/>
<stop offset="1" stop-color="#373737"/>
</linearGradient>
<linearGradient id="paint11_linear_1387_18749" x1="0.906923" y1="14.71" x2="16.3088" y2="16.193" gradientUnits="userSpaceOnUse">
<stop stop-color="#B7B7B7"/>
<stop offset="0.463856" stop-color="#3E3E3E"/>
</linearGradient>
<linearGradient id="paint12_linear_1387_18749" x1="15.9326" y1="17.0676" x2="29.5444" y2="12.402" gradientUnits="userSpaceOnUse">
<stop offset="0.578095" stop-color="#3E3E3E"/>
<stop offset="1" stop-color="#696969"/>
</linearGradient>
<clipPath id="clip0_1387_18749">
<rect width="32" height="32" rx="6" fill="white"/>
</clipPath>
</defs>
</svg>
