<svg width="1920" height="1080" viewBox="0 0 1920 1080" fill="none" xmlns="http://www.w3.org/2000/svg">
<rect width="1920" height="1080" fill="white"/>
<path d="M316.631 327.582C365.596 284.458 422.618 250.864 488.218 240.565C550.567 230.881 610.934 234.319 671.597 254.496C753.574 281.648 829.245 332.59 897.03 383.936C929.322 408.397 1047.78 507.396 1047.78 507.396C1114.7 474.564 1199.76 433.63 1272.78 407.931C1311.71 394.276 1360.06 382.442 1401.65 387.603C1496.73 399.285 1563.09 449.585 1595.11 540.403C1606.2 571.858 1608.81 592.922 1606.68 626.564C1593.87 717.814 1546.54 783.111 1457.82 816.837C1429.82 827.557 1406.1 832.17 1377.02 833.193C1338.18 834.561 1301.84 819.049 1265.85 806.667C1193.61 781.721 1118.15 736.235 1053.51 696.667L1003.91 727.349C934.82 772.2 861.841 811.763 787.871 848.238C722.662 880.562 654.627 904.257 581.456 910.915C536.498 914.932 490.151 913.93 446.896 900.149C383.288 880.552 327.172 842.553 285.821 791.076C257.64 756.199 236.132 718 224.911 674.446C187.951 556.615 221.506 411.358 316.631 327.582ZM877.428 586.461C765.276 515.7 655.231 433.178 529.774 450.487C455.706 460.705 416.656 527.244 424.233 595.91C428.938 638.55 468.023 688.821 516.493 702.468C555.276 713.384 592.163 704.68 627.773 692.789C714.825 663.722 794.068 623.795 877.428 586.461ZM1183.64 616.136C1223.8 644.132 1272.21 672.82 1319.9 686.063C1348.19 693.918 1376.98 697.434 1406.61 689.794C1459.89 676.069 1487.39 603.202 1447.62 553.458C1418.84 521.237 1380.55 520.744 1343.91 531.151C1285.28 547.965 1204.29 601.957 1183.64 616.136Z" fill="url(#paint0_linear_1021_135)"/>
<path d="M787.87 848.238C861.84 811.763 934.819 772.2 1003.91 727.349L1053.51 696.667L877.492 586.513C794.132 623.847 714.824 663.722 627.772 692.789C592.163 704.68 555.275 713.384 516.492 702.467C468.022 688.821 428.937 638.55 424.233 595.91C416.656 527.244 455.705 460.705 529.774 450.487C529.774 450.487 289.991 475.366 338.144 748.253C386.254 938.804 581.455 910.915 581.455 910.915C654.626 904.257 722.661 880.562 787.87 848.238Z" fill="url(#paint1_linear_1021_135)"/>
<path d="M1272.78 407.931C1199.76 433.63 1114.7 474.564 1047.78 507.396C1047.78 507.396 1166.71 605.292 1183.63 616.136C1195.08 607.912 1285.28 547.965 1343.91 531.151C1380.55 520.744 1418.84 521.237 1447.62 553.458C1487.39 603.202 1459.88 676.069 1406.61 689.794C1406.61 689.794 1543.45 662.868 1528.38 517.616C1522.22 458.169 1468.81 395.938 1401.65 387.604C1360.06 382.442 1311.71 394.276 1272.78 407.931Z" fill="url(#paint2_linear_1021_135)"/>
<defs>
<linearGradient id="paint0_linear_1021_135" x1="185.557" y1="560.123" x2="1844.34" y2="540" gradientUnits="userSpaceOnUse">
<stop offset="0.738294" stop-color="#373737"/>
<stop offset="1" stop-color="#DFDFDF"/>
</linearGradient>
<linearGradient id="paint1_linear_1021_135" x1="100.042" y1="585.539" x2="864.891" y2="640.539" gradientUnits="userSpaceOnUse">
<stop stop-color="#ACACAC"/>
<stop offset="0.541784" stop-color="#606060"/>
</linearGradient>
<linearGradient id="paint2_linear_1021_135" x1="1049.51" y1="518.669" x2="1659.78" y2="472.059" gradientUnits="userSpaceOnUse">
<stop offset="0.578095" stop-color="#606060"/>
<stop offset="1" stop-color="#ADADAD"/>
</linearGradient>
</defs>
</svg>
