<svg width="63" height="16" viewBox="0 0 63 16" fill="none" xmlns="http://www.w3.org/2000/svg">
<g clipPath="url(#clip0_308_12277)">
<path d="M22.606 15.9364L11.5835 0.75293L0.486328 15.9364H15.9129L11.5835 10.1489L9.39392 13.1715H7.07993L11.5835 7.10282L18.0278 15.9364H22.606Z" fill="url(#paint0_linear_308_12277)"/>
<path d="M31.887 8.22741C31.7377 8.22741 31.7377 8.29771 31.7377 8.368V9.35212C31.7377 9.4927 31.8124 9.4927 31.887 9.4927H35.4948V11.3203C34.6737 12.4451 33.3301 13.0777 31.887 13.0074C29.1998 13.0074 27.5327 11.3906 27.5327 8.27427C27.4581 5.15791 29.3989 3.54115 31.5884 3.54115C33.3053 3.54115 34.7484 4.17379 35.1963 5.72026C35.1963 5.79055 35.2709 5.86085 35.4202 5.86085H36.5399C36.6891 5.86085 36.7638 5.79055 36.7638 5.72026C36.3159 3.33026 34.1512 2.18213 31.5884 2.18213C28.8266 2.18213 25.8159 4.22065 25.8159 8.25084C25.8159 12.281 28.5778 14.3196 31.8124 14.3196C33.7531 14.3899 35.6441 13.476 36.6891 11.8593C36.8384 11.6484 36.8384 11.5078 36.8384 11.2266V8.25084C36.8384 8.11025 36.7638 8.11025 36.6891 8.11025L31.887 8.18055V8.22741ZM50.5482 2.58046C50.5482 2.43987 50.4735 2.43987 50.3989 2.43987H48.682C48.5328 2.43987 48.4581 2.51017 48.3835 2.58046L44.8503 10.1253L41.3918 2.58046C41.3171 2.43987 41.2425 2.36958 41.0932 2.43987H39.3764C39.2271 2.43987 39.2271 2.51017 39.2271 2.58046V14.0852C39.2271 14.2258 39.3017 14.2258 39.3764 14.2258H40.496C40.6453 14.2258 40.6453 14.1555 40.6453 14.0852V4.61899L44.1785 12.0936C44.1785 12.1639 44.3278 12.2342 44.4024 12.2342H45.2235C45.2982 12.2342 45.4474 12.1639 45.4474 12.0936L48.9806 4.61899V14.0852C48.9806 14.2258 49.0553 14.2258 49.1299 14.2258H50.2496C50.3989 14.2258 50.3989 14.1555 50.3989 14.0852L50.5482 2.58046ZM54.4546 2.58046C54.3053 2.43987 54.3053 2.43987 54.2306 2.43987H52.887C52.7377 2.43987 52.7377 2.51017 52.7377 2.58046L56.5695 8.01653L52.2152 14.0852C52.1406 14.1555 52.2152 14.2258 52.3645 14.2258H53.7081C53.8574 14.2258 53.8574 14.2258 54.0067 14.0852L57.4652 9.21153L60.9238 14.0852C61.0731 14.2258 61.0731 14.2258 61.2223 14.2258H62.5659C62.7152 14.2258 62.7152 14.1555 62.7152 14.0852L58.4356 8.01653L62.2674 2.58046C62.342 2.51017 62.2674 2.43987 62.1181 2.43987H60.6998C60.5505 2.43987 60.5505 2.43987 60.4759 2.58046L57.5648 6.75124L54.4794 2.58046H54.4546Z" fill="white"/>
</g>
<defs>
<linearGradient id="paint0_linear_308_12277" x1="9.99107" y1="-0.114029" x2="3.76196" y2="16.6605" gradientUnits="userSpaceOnUse">
<stop stop-color="#03D1CF" stop-opacity="0.988235"/>
<stop offset="1" stop-color="#4E09F8"/>
</linearGradient>
<clipPath id="clip0_308_12277">
<rect width="62.2038" height="15.1835" fill="white" transform="translate(0.486328 0.75293)"/>
</clipPath>
</defs>
</svg>
