<svg width="70" height="24" viewBox="0 0 70 24" fill="none" xmlns="http://www.w3.org/2000/svg">
<mask id="mask0_308_12250" style="mask-type:alpha" maskUnits="userSpaceOnUse" x="1" y="2" width="42" height="20">
<g style="mix-blend-mode:color-dodge" opacity="0.75">
<path d="M5.1963 4.52775C6.66361 3.33379 8.35352 2.42503 10.2656 2.20082C12.0829 1.99078 13.8278 2.15862 15.5624 2.81176C17.9067 3.69103 20.0413 5.25239 21.947 6.81655C22.8548 7.56171 26.1747 10.5637 26.1747 10.5637C28.1505 9.68819 30.6609 8.59848 32.8053 7.93653C33.9487 7.58498 35.363 7.29681 36.562 7.49335C39.3031 7.93927 41.1688 9.4715 41.9938 12.1387C42.2795 13.0625 42.3313 13.6757 42.2316 14.6479C41.7572 17.277 40.3121 19.1152 37.7039 19.9919C36.8805 20.2708 36.1882 20.3776 35.3444 20.3744C34.2176 20.3701 33.1825 19.8796 32.1539 19.4802C30.0893 18.6759 27.9545 17.2728 26.1268 16.0534L24.655 16.8862C22.6028 18.1074 20.4438 19.1711 18.2596 20.1441C16.3339 21.0069 14.3362 21.6164 12.2088 21.7265C10.9018 21.7921 9.56028 21.7106 8.32277 21.2625C6.50216 20.6228 4.91942 19.4586 3.77967 17.9205C3.00269 16.8782 2.42279 15.7473 2.14695 14.4728C1.20945 11.0174 2.34579 6.8472 5.1963 4.52775ZM21.1501 12.6616C17.981 10.4848 14.8863 7.96973 11.2322 8.32932C9.07485 8.54162 7.86833 10.4251 8.0102 12.423C8.09829 13.6636 9.17376 15.1641 10.5625 15.6143C11.6737 15.9744 12.7522 15.7639 13.7973 15.4597C16.3521 14.7161 18.6929 13.6489 21.1501 12.6616ZM29.9875 13.8675C31.1196 14.724 32.4895 15.6098 33.8561 16.0474C34.6668 16.307 35.4968 16.4414 36.3638 16.2535C37.9228 15.9162 38.8021 13.8363 37.7061 12.3502C36.9087 11.3842 35.8 11.3266 34.7267 11.5867C33.0092 12.0075 30.602 13.4801 29.9875 13.8675Z" fill="url(#paint0_linear_308_12250)"/>
<path d="M18.2597 20.1441C20.4439 19.1711 22.6028 18.1075 24.655 16.8862L26.1268 16.0534L21.152 12.6632C18.6948 13.6506 16.3521 14.7161 13.7973 15.4597C12.7523 15.764 11.6738 15.9744 10.5626 15.6143C9.17382 15.1641 8.09835 13.6636 8.01025 12.423C7.86838 10.4251 9.0749 8.54163 11.2322 8.32933C11.2322 8.32933 4.25752 8.779 5.34398 16.7391C6.52232 22.3138 12.2089 21.7266 12.2089 21.7266C14.3362 21.6164 16.334 21.0069 18.2597 20.1441Z" fill="url(#paint1_linear_308_12250)"/>
<path d="M32.8054 7.93638C30.6609 8.59833 28.1505 9.68804 26.1748 10.5635C26.1748 10.5635 29.5094 13.5341 29.9875 13.8674C30.3284 13.6421 33.0093 12.0074 34.7267 11.5866C35.8 11.3265 36.9087 11.3841 37.7061 12.3501C38.8021 13.8361 37.9228 15.916 36.3638 16.2534C36.3638 16.2534 40.3588 15.628 40.0864 11.403C39.975 9.67382 38.4982 7.81058 36.562 7.49321C35.363 7.29667 33.9488 7.58483 32.8054 7.93638Z" fill="url(#paint2_linear_308_12250)"/>
</g>
<g style="mix-blend-mode:screen" opacity="0.25">
<path d="M5.1963 4.52775C6.66361 3.33379 8.35352 2.42503 10.2656 2.20082C12.0829 1.99078 13.8278 2.15862 15.5624 2.81176C17.9067 3.69103 20.0413 5.25239 21.947 6.81655C22.8548 7.56171 26.1747 10.5637 26.1747 10.5637C28.1505 9.68819 30.6609 8.59848 32.8053 7.93653C33.9487 7.58498 35.363 7.29681 36.562 7.49335C39.3031 7.93927 41.1688 9.4715 41.9938 12.1387C42.2795 13.0625 42.3313 13.6757 42.2316 14.6479C41.7572 17.277 40.3121 19.1152 37.7039 19.9919C36.8805 20.2708 36.1882 20.3776 35.3444 20.3744C34.2176 20.3701 33.1825 19.8796 32.1539 19.4802C30.0893 18.6759 27.9545 17.2728 26.1268 16.0534L24.655 16.8862C22.6028 18.1074 20.4438 19.1711 18.2596 20.1441C16.3339 21.0069 14.3362 21.6164 12.2088 21.7265C10.9018 21.7921 9.56028 21.7106 8.32277 21.2625C6.50216 20.6228 4.91942 19.4586 3.77967 17.9205C3.00269 16.8782 2.42279 15.7473 2.14695 14.4728C1.20945 11.0174 2.34579 6.8472 5.1963 4.52775ZM21.1501 12.6616C17.981 10.4848 14.8863 7.96973 11.2322 8.32932C9.07485 8.54162 7.86833 10.4251 8.0102 12.423C8.09829 13.6636 9.17376 15.1641 10.5625 15.6143C11.6737 15.9744 12.7522 15.7639 13.7973 15.4597C16.3521 14.7161 18.6929 13.6489 21.1501 12.6616ZM29.9875 13.8675C31.1196 14.724 32.4895 15.6098 33.8561 16.0474C34.6668 16.307 35.4968 16.4414 36.3638 16.2535C37.9228 15.9162 38.8021 13.8363 37.7061 12.3502C36.9087 11.3842 35.8 11.3266 34.7267 11.5867C33.0092 12.0075 30.602 13.4801 29.9875 13.8675Z" fill="url(#paint3_linear_308_12250)"/>
<path d="M18.2597 20.1441C20.4439 19.1711 22.6028 18.1075 24.655 16.8862L26.1268 16.0534L21.152 12.6632C18.6948 13.6506 16.3521 14.7161 13.7973 15.4597C12.7523 15.764 11.6738 15.9744 10.5626 15.6143C9.17382 15.1641 8.09835 13.6636 8.01025 12.423C7.86838 10.4251 9.0749 8.54163 11.2322 8.32933C11.2322 8.32933 4.25752 8.779 5.34398 16.7391C6.52232 22.3138 12.2089 21.7266 12.2089 21.7266C14.3362 21.6164 16.334 21.0069 18.2597 20.1441Z" fill="url(#paint4_linear_308_12250)"/>
<path d="M32.8054 7.93638C30.6609 8.59833 28.1505 9.68804 26.1748 10.5635C26.1748 10.5635 29.5094 13.5341 29.9875 13.8674C30.3284 13.6421 33.0093 12.0074 34.7267 11.5866C35.8 11.3265 36.9087 11.3841 37.7061 12.3501C38.8021 13.8361 37.9228 15.916 36.3638 16.2534C36.3638 16.2534 40.3588 15.628 40.0864 11.403C39.975 9.67382 38.4982 7.81058 36.562 7.49321C35.363 7.29667 33.9488 7.58483 32.8054 7.93638Z" fill="url(#paint5_linear_308_12250)"/>
</g>
</mask>
<g mask="url(#mask0_308_12250)">
<g filter="url(#filter0_bf_308_12250)">
<ellipse cx="31.2358" cy="18.5165" rx="13.9452" ry="5.5879" transform="rotate(90 31.2358 18.5165)" fill="white"/>
<ellipse cx="31.2358" cy="18.5165" rx="13.9452" ry="5.5879" transform="rotate(90 31.2358 18.5165)" fill="#171A1E"/>
</g>
<g filter="url(#filter1_f_308_12250)">
<path d="M24.9978 22.0173C26.0197 26.895 22.8314 31.3789 17.8907 32.0306C12.9499 32.6823 8.10475 29.258 7.08286 24.3803L4.34085 11.2921C3.31896 6.41439 6.50726 1.93044 11.448 1.27875C16.3888 0.627054 21.2339 4.0514 22.2558 8.92908L24.9978 22.0173Z" fill="url(#paint6_radial_308_12250)"/>
</g>
<g filter="url(#filter2_f_308_12250)">
<path d="M24.9978 22.0173C26.0197 26.895 22.8314 31.3789 17.8907 32.0306C12.9499 32.6823 8.10475 29.258 7.08286 24.3803L4.34085 11.2921C3.31896 6.41439 6.50726 1.93044 11.448 1.27875C16.3888 0.627054 21.2339 4.0514 22.2558 8.92908L24.9978 22.0173Z" fill="url(#paint7_radial_308_12250)"/>
</g>
<g filter="url(#filter3_bf_308_12250)">
<ellipse cx="25.153" cy="17.8436" rx="16.973" ry="5.05162" transform="rotate(90 25.153 17.8436)" fill="#350C0C" fill-opacity="0.3"/>
</g>
<g filter="url(#filter4_f_308_12250)">
<path d="M24.3469 7.08908C24.6345 4.53276 25.7784 4.33646 26.9018 6.65064C28.0253 8.96481 28.7028 12.9131 28.4152 15.4695L27.8537 20.4602C27.5661 23.0165 26.4222 23.2128 25.2987 20.8986C24.1753 18.5844 23.4977 14.6361 23.7854 12.0798L24.3469 7.08908Z" fill="#171A1E"/>
</g>
<g filter="url(#filter5_f_308_12250)">
<path d="M21.6925 14.0663C22.0918 10.5175 23.6798 10.245 25.2394 13.4576C26.799 16.6702 27.7396 22.1514 27.3403 25.7002L26.8231 30.2969C26.4239 33.8457 24.8359 34.1182 23.2763 30.9056C21.7167 27.693 20.7761 22.2118 21.1754 18.663L21.6925 14.0663Z" fill="#171A1E"/>
</g>
<g filter="url(#filter6_f_308_12250)">
<path d="M24.3469 10.7746C24.6345 8.21831 25.7784 8.02201 26.9018 10.3362C28.0253 12.6504 28.7028 16.5987 28.4152 19.155L27.8537 24.1457C27.5661 26.702 26.4222 26.8983 25.2987 24.5842C24.1753 22.27 23.4977 18.3217 23.7854 15.7653L24.3469 10.7746Z" fill="#171A1E"/>
</g>
<g filter="url(#filter7_f_308_12250)">
<path d="M32.0164 20.5188C32.0373 17.7991 34.2261 15.2144 36.9053 14.7458C39.5845 14.2772 41.7395 16.1022 41.7187 18.822L41.6758 24.4205C41.6549 27.1403 39.4661 29.725 36.7869 30.1936C34.1077 30.6621 31.9527 28.8372 31.9735 26.1174L32.0164 20.5188Z" fill="url(#paint8_radial_308_12250)"/>
</g>
<g style="mix-blend-mode:overlay" filter="url(#filter8_f_308_12250)">
<path d="M33.1571 -8.91584C37.6442 -9.85574 42.1243 -6.998 43.1637 -2.53291L46.5984 12.2223C47.6378 16.6874 44.8429 21.069 40.3558 22.0089C35.8687 22.9488 31.3886 20.0911 30.3493 15.626L26.9145 0.870764C25.8751 -3.59433 28.6701 -7.97594 33.1571 -8.91584Z" fill="url(#paint9_radial_308_12250)"/>
</g>
<g style="mix-blend-mode:overlay" opacity="0.75" filter="url(#filter9_d_308_12250)">
<path d="M5.1963 4.52775C6.66361 3.33379 8.35352 2.42503 10.2656 2.20082C12.0829 1.99078 13.8278 2.15862 15.5624 2.81176C17.9067 3.69103 20.0413 5.25239 21.947 6.81655C22.8548 7.56171 26.1747 10.5637 26.1747 10.5637C28.1505 9.68819 30.6609 8.59848 32.8053 7.93653C33.9487 7.58498 35.363 7.29681 36.562 7.49335C39.3031 7.93927 41.1688 9.4715 41.9938 12.1387C42.2795 13.0625 42.3313 13.6757 42.2316 14.6479C41.7572 17.277 40.3121 19.1152 37.7039 19.9919C36.8805 20.2708 36.1882 20.3776 35.3444 20.3744C34.2176 20.3701 33.1825 19.8796 32.1539 19.4802C30.0893 18.6759 27.9545 17.2728 26.1268 16.0534L24.655 16.8862C22.6028 18.1074 20.4438 19.1711 18.2596 20.1441C16.3339 21.0069 14.3362 21.6164 12.2088 21.7265C10.9018 21.7921 9.56028 21.7106 8.32277 21.2625C6.50216 20.6228 4.91942 19.4586 3.77967 17.9205C3.00269 16.8782 2.42279 15.7473 2.14695 14.4728C1.20945 11.0174 2.34579 6.8472 5.1963 4.52775ZM21.1501 12.6616C17.981 10.4848 14.8863 7.96973 11.2322 8.32932C9.07485 8.54162 7.86833 10.4251 8.0102 12.423C8.09829 13.6636 9.17376 15.1641 10.5625 15.6143C11.6737 15.9744 12.7522 15.7639 13.7973 15.4597C16.3521 14.7161 18.6929 13.6489 21.1501 12.6616ZM29.9875 13.8675C31.1196 14.724 32.4895 15.6098 33.8561 16.0474C34.6668 16.307 35.4968 16.4414 36.3638 16.2535C37.9228 15.9162 38.8021 13.8363 37.7061 12.3502C36.9087 11.3842 35.8 11.3266 34.7267 11.5867C33.0092 12.0075 30.602 13.4801 29.9875 13.8675Z" fill="url(#paint10_linear_308_12250)"/>
<path d="M18.2597 20.1441C20.4439 19.1711 22.6028 18.1075 24.655 16.8862L26.1268 16.0534L21.152 12.6632C18.6948 13.6506 16.3521 14.7161 13.7973 15.4597C12.7523 15.764 11.6738 15.9744 10.5626 15.6143C9.17382 15.1641 8.09835 13.6636 8.01025 12.423C7.86838 10.4251 9.0749 8.54163 11.2322 8.32933C11.2322 8.32933 4.25752 8.779 5.34398 16.7391C6.52232 22.3138 12.2089 21.7266 12.2089 21.7266C14.3362 21.6164 16.334 21.0069 18.2597 20.1441Z" fill="url(#paint11_linear_308_12250)"/>
<path d="M32.8054 7.93638C30.6609 8.59833 28.1505 9.68804 26.1748 10.5635C26.1748 10.5635 29.5094 13.5341 29.9875 13.8674C30.3284 13.6421 33.0093 12.0074 34.7267 11.5866C35.8 11.3265 36.9087 11.3841 37.7061 12.3501C38.8021 13.8361 37.9228 15.916 36.3638 16.2534C36.3638 16.2534 40.3588 15.628 40.0864 11.403C39.975 9.67382 38.4982 7.81058 36.562 7.49321C35.363 7.29667 33.9488 7.58483 32.8054 7.93638Z" fill="url(#paint12_linear_308_12250)"/>
</g>
</g>
<path d="M50.055 5.52169H48.2842V17.1829H50.055V5.52169Z" fill="white"/>
<path d="M51.6058 5.50537V17.1829H53.7765L60.6557 5.50537H58.5993L53.3848 14.3594V5.50537H51.6058Z" fill="white"/>
<path d="M67.4699 5.50537L64.9973 9.69982L62.5247 5.50537L60.4683 5.50537L63.9691 11.4461L60.5907 17.1829H62.6471L64.9973 13.1925L67.3475 17.1829H69.404L66.0255 11.4461L69.5264 5.50537L67.4699 5.50537Z" fill="white"/>
<defs>
<filter id="filter0_bf_308_12250" x="12.8777" y="-8.199" width="36.7164" height="53.4307" filterUnits="userSpaceOnUse" color-interpolation-filters="sRGB">
<feFlood flood-opacity="0" result="BackgroundImageFix"/>
<feGaussianBlur in="BackgroundImageFix" stdDeviation="0.638515"/>
<feComposite in2="SourceAlpha" operator="in" result="effect1_backgroundBlur_308_12250"/>
<feBlend mode="normal" in="SourceGraphic" in2="effect1_backgroundBlur_308_12250" result="shape"/>
<feGaussianBlur stdDeviation="6.38515" result="effect2_foregroundBlur_308_12250"/>
</filter>
<filter id="filter1_f_308_12250" x="-0.459226" y="-3.4104" width="30.2573" height="40.1304" filterUnits="userSpaceOnUse" color-interpolation-filters="sRGB">
<feFlood flood-opacity="0" result="BackgroundImageFix"/>
<feBlend mode="normal" in="SourceGraphic" in2="BackgroundImageFix" result="shape"/>
<feGaussianBlur stdDeviation="2.30481" result="effect1_foregroundBlur_308_12250"/>
</filter>
<filter id="filter2_f_308_12250" x="-0.459226" y="-3.4104" width="30.2573" height="40.1304" filterUnits="userSpaceOnUse" color-interpolation-filters="sRGB">
<feFlood flood-opacity="0" result="BackgroundImageFix"/>
<feBlend mode="normal" in="SourceGraphic" in2="BackgroundImageFix" result="shape"/>
<feGaussianBlur stdDeviation="2.30481" result="effect1_foregroundBlur_308_12250"/>
</filter>
<filter id="filter3_bf_308_12250" x="7.33127" y="-11.8997" width="35.6436" height="59.4864" filterUnits="userSpaceOnUse" color-interpolation-filters="sRGB">
<feFlood flood-opacity="0" result="BackgroundImageFix"/>
<feGaussianBlur in="BackgroundImageFix" stdDeviation="0.638515"/>
<feComposite in2="SourceAlpha" operator="in" result="effect1_backgroundBlur_308_12250"/>
<feBlend mode="normal" in="SourceGraphic" in2="effect1_backgroundBlur_308_12250" result="shape"/>
<feGaussianBlur stdDeviation="6.38515" result="effect2_foregroundBlur_308_12250"/>
</filter>
<filter id="filter4_f_308_12250" x="9.81996" y="-8.86364" width="32.5608" height="45.2766" filterUnits="userSpaceOnUse" color-interpolation-filters="sRGB">
<feFlood flood-opacity="0" result="BackgroundImageFix"/>
<feBlend mode="normal" in="SourceGraphic" in2="BackgroundImageFix" result="shape"/>
<feGaussianBlur stdDeviation="6.94964" result="effect1_foregroundBlur_308_12250"/>
</filter>
<filter id="filter5_f_308_12250" x="7.18421" y="-2.68346" width="34.1472" height="49.7302" filterUnits="userSpaceOnUse" color-interpolation-filters="sRGB">
<feFlood flood-opacity="0" result="BackgroundImageFix"/>
<feBlend mode="normal" in="SourceGraphic" in2="BackgroundImageFix" result="shape"/>
<feGaussianBlur stdDeviation="6.94964" result="effect1_foregroundBlur_308_12250"/>
</filter>
<filter id="filter6_f_308_12250" x="9.81996" y="-5.17809" width="32.5608" height="45.2766" filterUnits="userSpaceOnUse" color-interpolation-filters="sRGB">
<feFlood flood-opacity="0" result="BackgroundImageFix"/>
<feBlend mode="normal" in="SourceGraphic" in2="BackgroundImageFix" result="shape"/>
<feGaussianBlur stdDeviation="6.94964" result="effect1_foregroundBlur_308_12250"/>
</filter>
<filter id="filter7_f_308_12250" x="18.0739" y="0.773081" width="37.5442" height="43.3933" filterUnits="userSpaceOnUse" color-interpolation-filters="sRGB">
<feFlood flood-opacity="0" result="BackgroundImageFix"/>
<feBlend mode="normal" in="SourceGraphic" in2="BackgroundImageFix" result="shape"/>
<feGaussianBlur stdDeviation="6.94964" result="effect1_foregroundBlur_308_12250"/>
</filter>
<filter id="filter8_f_308_12250" x="22.186" y="-13.6065" width="29.1412" height="40.3063" filterUnits="userSpaceOnUse" color-interpolation-filters="sRGB">
<feFlood flood-opacity="0" result="BackgroundImageFix"/>
<feBlend mode="normal" in="SourceGraphic" in2="BackgroundImageFix" result="shape"/>
<feGaussianBlur stdDeviation="2.25589" result="effect1_foregroundBlur_308_12250"/>
</filter>
<filter id="filter9_d_308_12250" x="0.803084" y="1.60442" width="42.4969" height="21.6746" filterUnits="userSpaceOnUse" color-interpolation-filters="sRGB">
<feFlood flood-opacity="0" result="BackgroundImageFix"/>
<feColorMatrix in="SourceAlpha" type="matrix" values="0 0 0 0 0 0 0 0 0 0 0 0 0 0 0 0 0 0 127 0" result="hardAlpha"/>
<feOffset dy="0.510812"/>
<feGaussianBlur stdDeviation="0.510812"/>
<feComposite in2="hardAlpha" operator="out"/>
<feColorMatrix type="matrix" values="0 0 0 0 0.356863 0 0 0 0 0.54902 0 0 0 0 0.486275 0 0 0 0.5 0"/>
<feBlend mode="color-burn" in2="BackgroundImageFix" result="effect1_dropShadow_308_12250"/>
<feBlend mode="normal" in="SourceGraphic" in2="effect1_dropShadow_308_12250" result="shape"/>
</filter>
<linearGradient id="paint0_linear_308_12250" x1="2.15005" y1="16.3318" x2="48.9822" y2="10.2066" gradientUnits="userSpaceOnUse">
<stop stop-color="white"/>
<stop offset="0.829729" stop-color="#C9C9C9"/>
<stop offset="1" stop-color="#373737"/>
</linearGradient>
<linearGradient id="paint1_linear_308_12250" x1="-0.170481" y1="11.9836" x2="23.5654" y2="14.2689" gradientUnits="userSpaceOnUse">
<stop stop-color="#F2F2F2"/>
<stop offset="0.463856" stop-color="#909090"/>
</linearGradient>
<linearGradient id="paint2_linear_308_12250" x1="22.9842" y1="15.6184" x2="43.9613" y2="8.42828" gradientUnits="userSpaceOnUse">
<stop offset="0.578095" stop-color="#8F8F8F"/>
<stop offset="1" stop-color="#F2F2F2"/>
</linearGradient>
<linearGradient id="paint3_linear_308_12250" x1="2.15005" y1="16.3318" x2="48.9822" y2="10.2066" gradientUnits="userSpaceOnUse">
<stop stop-color="white"/>
<stop offset="0.829729" stop-color="#C9C9C9"/>
<stop offset="1" stop-color="#373737"/>
</linearGradient>
<linearGradient id="paint4_linear_308_12250" x1="-0.170481" y1="11.9836" x2="23.5654" y2="14.2689" gradientUnits="userSpaceOnUse">
<stop stop-color="#F2F2F2"/>
<stop offset="0.463856" stop-color="#909090"/>
</linearGradient>
<linearGradient id="paint5_linear_308_12250" x1="22.9842" y1="15.6184" x2="43.9613" y2="8.42828" gradientUnits="userSpaceOnUse">
<stop offset="0.578095" stop-color="#8F8F8F"/>
<stop offset="1" stop-color="#F2F2F2"/>
</linearGradient>
<radialGradient id="paint6_radial_308_12250" cx="0" cy="0" r="1" gradientUnits="userSpaceOnUse" gradientTransform="translate(17.2562 21.2665) rotate(-106.203) scale(20.8146 11.9427)">
<stop offset="0.286458" stop-color="#FF4B4B"/>
<stop offset="1" stop-color="#FFD84B" stop-opacity="0.72"/>
</radialGradient>
<radialGradient id="paint7_radial_308_12250" cx="0" cy="0" r="1" gradientUnits="userSpaceOnUse" gradientTransform="translate(17.2562 21.2665) rotate(-106.203) scale(20.8146 11.9427)">
<stop offset="0.286458" stop-color="#FF4B4B"/>
<stop offset="1" stop-color="#FFD84B" stop-opacity="0.72"/>
</radialGradient>
<radialGradient id="paint8_radial_308_12250" cx="0" cy="0" r="1" gradientUnits="userSpaceOnUse" gradientTransform="translate(32.2476 20.7222) rotate(5.60539) scale(10.2372 4.29395)">
<stop stop-color="#5AFDDF"/>
<stop offset="1" stop-color="#00D9A5"/>
</radialGradient>
<radialGradient id="paint9_radial_308_12250" cx="0" cy="0" r="1" gradientUnits="userSpaceOnUse" gradientTransform="translate(0.975239 9.0039) rotate(-50.5863) scale(57.9396 87.4351)">
<stop stop-color="#07FFC4"/>
<stop offset="1" stop-color="#007ABE"/>
</radialGradient>
<linearGradient id="paint10_linear_308_12250" x1="2.15005" y1="16.3318" x2="48.9822" y2="10.2066" gradientUnits="userSpaceOnUse">
<stop stop-color="#3E3E3E"/>
<stop offset="0.829729" stop-color="#9D9D9D"/>
<stop offset="1" stop-color="#373737"/>
</linearGradient>
<linearGradient id="paint11_linear_308_12250" x1="-0.170481" y1="11.9836" x2="23.5654" y2="14.2689" gradientUnits="userSpaceOnUse">
<stop stop-color="#B7B7B7"/>
<stop offset="0.463856" stop-color="#3E3E3E"/>
</linearGradient>
<linearGradient id="paint12_linear_308_12250" x1="22.9842" y1="15.6184" x2="43.9613" y2="8.42828" gradientUnits="userSpaceOnUse">
<stop offset="0.578095" stop-color="#3E3E3E"/>
<stop offset="1" stop-color="#696969"/>
</linearGradient>
</defs>
</svg>
